<svg xmlns="http://www.w3.org/2000/svg" width="1400" height="820" viewBox="0 0 1400 820">
<defs>
  <radialGradient id="bg" cx="50%" cy="45%" r="75%"><stop offset="0" stop-color="#0e3551"/><stop offset="1" stop-color="#040814"/></radialGradient>
  <pattern id="grid" width="28" height="28" patternUnits="userSpaceOnUse"><path d="M28 0H0v28" fill="none" stroke="#183149" opacity=".52"/><circle r="1.2" fill="#2d5872" opacity=".8"/></pattern>
  <filter id="shadow"><feDropShadow dx="0" dy="16" stdDeviation="16" flood-opacity=".45"/></filter>
  <linearGradient id="blue" x1="0" x2="1"><stop stop-color="#32d7ff"/><stop offset="1" stop-color="#2368ff"/></linearGradient>
  <linearGradient id="green" x1="0" x2="1"><stop stop-color="#4cf1a8"/><stop offset="1" stop-color="#12c878"/></linearGradient>
  <linearGradient id="gold" x1="0" x2="1"><stop stop-color="#ffd166"/><stop offset="1" stop-color="#ff8a3d"/></linearGradient>
  <marker id="arrow" markerWidth="12" markerHeight="12" refX="10" refY="6" orient="auto"><path d="M2 2l8 4-8 4z" fill="#38d9ff"/></marker>
  <style>
    .title{font:800 52px Inter,Arial;fill:white}.sub{font:500 20px Inter,Arial;fill:#a5cbe7}.h{font:800 20px Inter,Arial;fill:white}.small{font:600 13px Inter,Arial;fill:#84a4be}.mono{font:600 14px Consolas,monospace;fill:#b9d7ec}.card{fill:#091524;stroke:#24445f;stroke-width:1.2;filter:url(#shadow)}.node{fill:#0d1a2a;stroke:#2c536e;stroke-width:1.4;filter:url(#shadow)}.tag{fill:#102033;stroke:#345b77}.flow{fill:none;stroke:#38d9ff;stroke-width:4;stroke-dasharray:12 18;marker-end:url(#arrow);animation:dash 2.6s linear infinite}.flow2{stroke:#45f1a3;animation-delay:-1s}.flow3{stroke:#ffb454;animation-delay:-1.7s}@keyframes dash{to{stroke-dashoffset:-120}}
  </style>
</defs>
<rect width="1400" height="820" fill="url(#bg)"/><rect width="1400" height="820" fill="url(#grid)" opacity=".82"/>
<circle cx="1080" cy="265" r="300" fill="#0fbf9b" opacity=".08"/><circle cx="310" cy="610" r="240" fill="#2368ff" opacity=".12"/>
<text x="70" y="105" class="title">GHL + SMS Automation Workflow</text>
<text x="72" y="142" class="sub">Lead capture, CRM updates, consent checks, SMS follow-ups, replies, and booking actions.</text>

<g transform="translate(60 214)">
  <rect class="node" width="190" height="145" rx="22"/>
  <circle cx="53" cy="60" r="32" fill="url(#blue)" opacity=".95"/>
  <path d="M42 60h22M53 49v22" stroke="#fff" stroke-width="5" stroke-linecap="round"/>
  <text x="92" y="55" class="h">Lead</text><text x="92" y="82" class="small">form / ad / site</text>
  <text x="24" y="122" class="mono">lead.created</text>
</g>
<g transform="translate(315 214)">
  <rect class="node" width="210" height="145" rx="22"/>
  <rect x="28" y="32" width="58" height="58" rx="14" fill="#13283b" stroke="#34d3ff"/>
  <path d="M43 71h28M43 56h28" stroke="#32d7ff" stroke-width="5" stroke-linecap="round"/>
  <text x="106" y="55" class="h">GHL CRM</text><text x="106" y="82" class="small">contact + pipeline</text>
  <text x="28" y="122" class="mono">stage: New Lead</text>
</g>
<g transform="translate(595 214)">
  <rect class="node" width="210" height="145" rx="22"/>
  <rect x="28" y="32" width="58" height="58" rx="14" fill="#122536" stroke="#4cf1a8"/>
  <path d="M42 60l11 12 24-28" fill="none" stroke="#4cf1a8" stroke-width="6" stroke-linecap="round" stroke-linejoin="round"/>
  <text x="106" y="55" class="h">Consent Check</text><text x="106" y="82" class="small">opt-in + rules</text>
  <text x="28" y="122" class="mono">sms_allowed = true</text>
</g>
<g transform="translate(875 214)">
  <rect class="node" width="210" height="145" rx="22"/>
  <rect x="28" y="34" width="62" height="52" rx="14" fill="#13283b" stroke="#38d9ff"/>
  <path d="M38 48l22 18 22-18" fill="none" stroke="#38d9ff" stroke-width="5" stroke-linecap="round" stroke-linejoin="round"/>
  <text x="108" y="55" class="h">SMS Sequence</text><text x="108" y="82" class="small">send + wait steps</text>
  <text x="28" y="122" class="mono">send_text()</text>
</g>
<g transform="translate(1155 214)">
  <rect class="node" width="190" height="145" rx="22"/>
  <circle cx="56" cy="60" r="31" fill="none" stroke="url(#green)" stroke-width="7"/>
  <path d="M43 59h26M56 46v26" stroke="#4cf1a8" stroke-width="5" stroke-linecap="round"/>
  <text x="100" y="55" class="h">Result</text><text x="100" y="82" class="small">book / task / tag</text>
  <text x="24" y="122" class="mono">action.created</text>
</g>

<path class="flow" d="M250 286 C280 286 285 286 315 286"/>
<path class="flow flow2" d="M525 286 C555 286 565 286 595 286"/>
<path class="flow flow3" d="M805 286 C835 286 845 286 875 286"/>
<path class="flow flow2" d="M1085 286 C1115 286 1125 286 1155 286"/>

<g transform="translate(85 475)">
  <rect class="card" width="335" height="235" rx="24"/>
  <text x="28" y="45" class="h">Pipeline Snapshot</text>
  <rect x="28" y="74" width="280" height="24" rx="12" fill="#102033"/><rect x="28" y="74" width="230" height="24" rx="12" fill="url(#blue)" opacity=".9"/><text x="38" y="91" class="small" fill="#fff">New Lead</text><text x="270" y="91" class="mono">128</text>
  <rect x="28" y="114" width="280" height="24" rx="12" fill="#102033"/><rect x="28" y="114" width="170" height="24" rx="12" fill="url(#green)" opacity=".9"/><text x="38" y="131" class="small" fill="#fff">Contacted</text><text x="270" y="131" class="mono">75</text>
  <rect x="28" y="154" width="280" height="24" rx="12" fill="#102033"/><rect x="28" y="154" width="105" height="24" rx="12" fill="url(#gold)" opacity=".9"/><text x="38" y="171" class="small" fill="#fff">Qualified</text><text x="270" y="171" class="mono">42</text>
  <text x="28" y="210" class="mono">sync: contact updated</text>
</g>

<g transform="translate(535 475)">
  <rect class="card" width="335" height="235" rx="24"/>
  <text x="28" y="45" class="h">SMS Conversation</text>
  <rect x="28" y="72" width="220" height="42" rx="18" fill="#102033" stroke="#345b77"/><text x="46" y="98" class="mono">Hi, want help getting set up?</text>
  <rect x="94" y="128" width="210" height="42" rx="18" fill="#123a33" stroke="#4cf1a8"/><text x="112" y="154" class="mono">Yes, send details.</text>
  <rect x="28" y="184" width="250" height="34" rx="17" fill="#102033" stroke="#345b77"/><text x="46" y="207" class="mono">Booking link delivered</text>
  <circle cx="296" cy="42" r="8" fill="#4cf1a8"><animate attributeName="opacity" values="1;.25;1" dur="1.4s" repeatCount="indefinite"/></circle>
</g>

<g transform="translate(980 475)">
  <rect class="card" width="335" height="235" rx="24"/>
  <text x="28" y="45" class="h">Automation Rules</text>
  <rect x="28" y="74" width="280" height="38" rx="12" class="tag"/><text x="48" y="99" class="mono">IF reply contains "yes"</text>
  <rect x="28" y="124" width="280" height="38" rx="12" class="tag"/><text x="48" y="149" class="mono">THEN move pipeline stage</text>
  <rect x="28" y="174" width="280" height="38" rx="12" class="tag"/><text x="48" y="199" class="mono">CREATE task + notify team</text>
</g>

<path class="flow flow2" d="M220 430 C390 390 520 430 685 405 S1015 400 1185 430"/>
<path class="flow" d="M700 360 C700 395 700 425 700 475"/>

<g transform="translate(72 745)">
  <text class="small">Generic portfolio visual only. No client names, no private data, no company branding.</text>
</g>
</svg>
